<svg height="1390" width="720" xmlns="http://www.w3.org/2000/svg">
<rect height="1390" fill="#555" width="720"></rect>
<text fill="#7f7" font-family="Courier New" font-size="12" xml:space="preserve">
<tspan x="10" y="26">3 megabytes installed</tspan>
<tspan x="10" y="42"></tspan>
<tspan x="10" y="58">node_modules</tspan>
<tspan x="10" y="74">└─┬ gulp-umd@0.2.1 </tspan>
<tspan x="10" y="90">  ├─┬ event-stream@3.3.4 </tspan>
<tspan x="10" y="106">  │ ├── duplexer@0.1.1 </tspan>
<tspan x="10" y="122">  │ ├── from@0.1.7 </tspan>
<tspan x="10" y="138">  │ ├── map-stream@0.1.0 </tspan>
<tspan x="10" y="154">  │ ├── pause-stream@0.0.11 </tspan>
<tspan x="10" y="170">  │ ├── split@0.3.3 </tspan>
<tspan x="10" y="186">  │ ├── stream-combiner@0.0.4 </tspan>
<tspan x="10" y="202">  │ └── through@2.3.8 </tspan>
<tspan x="10" y="218">  ├─┬ gulp-util@3.0.8 </tspan>
<tspan x="10" y="234">  │ ├── array-differ@1.0.0 </tspan>
<tspan x="10" y="250">  │ ├── array-uniq@1.0.3 </tspan>
<tspan x="10" y="266">  │ ├── beeper@1.1.1 </tspan>
<tspan x="10" y="282">  │ ├─┬ chalk@1.1.3 </tspan>
<tspan x="10" y="298">  │ │ ├── ansi-styles@2.2.1 </tspan>
<tspan x="10" y="314">  │ │ ├── escape-string-regexp@1.0.5 </tspan>
<tspan x="10" y="330">  │ │ ├─┬ has-ansi@2.0.0 </tspan>
<tspan x="10" y="346">  │ │ │ └── ansi-regex@2.1.1 </tspan>
<tspan x="10" y="362">  │ │ ├── strip-ansi@3.0.1 </tspan>
<tspan x="10" y="378">  │ │ └── supports-color@2.0.0 </tspan>
<tspan x="10" y="394">  │ ├── dateformat@2.0.0 </tspan>
<tspan x="10" y="410">  │ ├─┬ fancy-log@1.3.0 </tspan>
<tspan x="10" y="426">  │ │ └── time-stamp@1.0.1 </tspan>
<tspan x="10" y="442">  │ ├─┬ gulplog@1.0.0 </tspan>
<tspan x="10" y="458">  │ │ └── glogg@1.0.0 </tspan>
<tspan x="10" y="474">  │ ├─┬ has-gulplog@0.1.0 </tspan>
<tspan x="10" y="490">  │ │ └── sparkles@1.0.0 </tspan>
<tspan x="10" y="506">  │ ├── lodash._reescape@3.0.0 </tspan>
<tspan x="10" y="522">  │ ├── lodash._reevaluate@3.0.0 </tspan>
<tspan x="10" y="538">  │ ├── lodash._reinterpolate@3.0.0 </tspan>
<tspan x="10" y="554">  │ ├─┬ lodash.template@3.6.2 </tspan>
<tspan x="10" y="570">  │ │ ├── lodash._basecopy@3.0.1 </tspan>
<tspan x="10" y="586">  │ │ ├── lodash._basetostring@3.0.1 </tspan>
<tspan x="10" y="602">  │ │ ├── lodash._basevalues@3.0.0 </tspan>
<tspan x="10" y="618">  │ │ ├── lodash._isiterateecall@3.0.9 </tspan>
<tspan x="10" y="634">  │ │ ├─┬ lodash.escape@3.2.0 </tspan>
<tspan x="10" y="650">  │ │ │ └── lodash._root@3.0.1 </tspan>
<tspan x="10" y="666">  │ │ ├─┬ lodash.keys@3.1.2 </tspan>
<tspan x="10" y="682">  │ │ │ ├── lodash._getnative@3.9.1 </tspan>
<tspan x="10" y="698">  │ │ │ ├── lodash.isarguments@3.1.0 </tspan>
<tspan x="10" y="714">  │ │ │ └── lodash.isarray@3.0.4 </tspan>
<tspan x="10" y="730">  │ │ ├── lodash.restparam@3.6.1 </tspan>
<tspan x="10" y="746">  │ │ └── lodash.templatesettings@3.1.1 </tspan>
<tspan x="10" y="762">  │ ├── minimist@1.2.0 </tspan>
<tspan x="10" y="778">  │ ├─┬ multipipe@0.1.2 </tspan>
<tspan x="10" y="794">  │ │ └─┬ duplexer2@0.0.2 </tspan>
<tspan x="10" y="810">  │ │   └─┬ readable-stream@1.1.14 </tspan>
<tspan x="10" y="826">  │ │     ├── isarray@0.0.1 </tspan>
<tspan x="10" y="842">  │ │     └── string_decoder@0.10.31 </tspan>
<tspan x="10" y="858">  │ ├── object-assign@3.0.0 </tspan>
<tspan x="10" y="874">  │ ├── replace-ext@0.0.1 </tspan>
<tspan x="10" y="890">  │ ├─┬ through2@2.0.3 </tspan>
<tspan x="10" y="906">  │ │ ├─┬ readable-stream@2.2.9 </tspan>
<tspan x="10" y="922">  │ │ │ ├── buffer-shims@1.0.0 </tspan>
<tspan x="10" y="938">  │ │ │ ├── core-util-is@1.0.2 </tspan>
<tspan x="10" y="954">  │ │ │ ├── inherits@2.0.3 </tspan>
<tspan x="10" y="970">  │ │ │ ├── isarray@1.0.0 </tspan>
<tspan x="10" y="986">  │ │ │ ├── process-nextick-args@1.0.7 </tspan>
<tspan x="10" y="1002">  │ │ │ ├── string_decoder@1.0.0 </tspan>
<tspan x="10" y="1018">  │ │ │ └── util-deprecate@1.0.2 </tspan>
<tspan x="10" y="1034">  │ │ └── xtend@4.0.1 </tspan>
<tspan x="10" y="1050">  │ └─┬ vinyl@0.5.3 </tspan>
<tspan x="10" y="1066">  │   ├── clone@1.0.2 </tspan>
<tspan x="10" y="1082">  │   └── clone-stats@0.0.1 </tspan>
<tspan x="10" y="1098">  └─┬ lodash.template@2.4.1 </tspan>
<tspan x="10" y="1114">    ├── lodash._escapestringchar@2.4.1 </tspan>
<tspan x="10" y="1130">    ├── lodash._reinterpolate@2.4.1 </tspan>
<tspan x="10" y="1146">    ├─┬ lodash.defaults@2.4.1 </tspan>
<tspan x="10" y="1162">    │ ├── lodash._objecttypes@2.4.1 </tspan>
<tspan x="10" y="1178">    │ └── lodash.keys@2.4.1 </tspan>
<tspan x="10" y="1194">    ├─┬ lodash.escape@2.4.1 </tspan>
<tspan x="10" y="1210">    │ ├─┬ lodash._escapehtmlchar@2.4.1 </tspan>
<tspan x="10" y="1226">    │ │ └── lodash._htmlescapes@2.4.1 </tspan>
<tspan x="10" y="1242">    │ └─┬ lodash._reunescapedhtml@2.4.1 </tspan>
<tspan x="10" y="1258">    │   └── lodash.keys@2.4.1 </tspan>
<tspan x="10" y="1274">    ├─┬ lodash.keys@2.4.1 </tspan>
<tspan x="10" y="1290">    │ ├── lodash._isnative@2.4.1 </tspan>
<tspan x="10" y="1306">    │ ├── lodash._shimkeys@2.4.1 </tspan>
<tspan x="10" y="1322">    │ └── lodash.isobject@2.4.1 </tspan>
<tspan x="10" y="1338">    ├── lodash.templatesettings@2.4.1 </tspan>
<tspan x="10" y="1354">    └─┬ lodash.values@2.4.1 </tspan>
<tspan x="10" y="1370">      └── lodash.keys@2.4.1</tspan>
</text>
</svg>
